# xmcd
#
# Track frame offsets:
#	150
#	14546
#	31944
#	51290
#	67330
#	84162
#	102648
#	118537
#	136003
#	154436
#
# Disc length: 2252 seconds
# Revision: 0
# Processed by: cddbd v1.5.2PL0 Copyright (c) Steve Scherf et al.
# Submitted via: dBpowerAMP V12.0
#
DISCID=8608ca0a
DTITLE=Thea Wescott - Cromwell... and other roads
DYEAR=2009
DGENRE=Country
TTITLE0=Diggin' Ol' Albert's Grave
TTITLE1=Blackberry Wine
TTITLE2=Whiskey Holler
TTITLE3=Alice
TTITLE4=Oh Elijah
TTITLE5=The Miller's Daughter
TTITLE6=The Mustard Seed
TTITLE7=Road To Cromwell
TTITLE8=Santa Ana Wind
TTITLE9=Fields Of Gold
EXTD=
EXTT0=
EXTT1=
EXTT2=
EXTT3=
EXTT4=
EXTT5=
EXTT6=
EXTT7=
EXTT8=
EXTT9=
PLAYORDER=
